<svg id="Layer_1" data-name="Layer 1" xmlns="http://www.w3.org/2000/svg" viewBox="0 0 432 432"><defs><style>.cls-2{fill:#f7941f}.cls-3{fill:#ef4337}.cls-4{fill:#fffffe}.cls-5{fill:#fff}</style></defs><circle cx="217.01" cy="221.34" r="106.68" fill="#1d1b50"/><path class="cls-2" d="M341.33 158.81a126.22 126.22 0 0113.83 1.74A142.53 142.53 0 00377.1 162c15 .12 30-.47 45-1.25.28 0 .68-.1.81.05s-.13.5-.29.7c-9.12 11-19.22 20.93-32.1 27.57-7.87 4.06-16.33 6.29-25 7.87s-17.2 2.91-25.4 6.06a25.61 25.61 0 00-5.59 2.54c-.47.56-1.12.44-1.73.47a58.44 58.44 0 01-22.9-3.16c-1.46-.52-1.58-.39-1.41 1.15a122.18 122.18 0 01.88 17.93 36.72 36.72 0 01-.53 6.28.55.55 0 01-.41.22c-.82-1.38-.56-2.94-.34-4.34.53-3.38 0-6.72-.16-10.05a76.74 76.74 0 00-2.37-15.34 93.27 93.27 0 00-46-59.56c-3.14-1.69-6.38-3.11-9.62-4.55-.85-.38-1.89-.67-1.54-2 .77-.37 1.4.07 2 .36a125.18 125.18 0 0127.67 17.2l.45.37c1.25 1 1.5 1 2.43-.26a73.86 73.86 0 005.86-8.9 51.57 51.57 0 006.28-18.3 72.44 72.44 0 00.23-14.94 44.27 44.27 0 00-.25-4.46.65.65 0 01.34-.73 67.31 67.31 0 0110.63-9c8.19-5.34 17.25-8.48 26.71-10.59 3.32-.74 6.68-1.29 10-1.91.4-.08 1-.33 1.21 0s-.19.79-.37 1.17a386.62 386.62 0 00-15.29 35.87c-2 5.65-2.77 11.55-3.92 17.38-.43 2.21-1 4.39-1.44 6.59v.21a1.53 1.53 0 01-.14.41 51.47 51.47 0 01-9 6.91 59 59 0 01-23.42 8.32c-1.57.24-1.59.27-.6 1.57A125.15 125.15 0 01305 191.21c.56 1.49.61 1.52 2 .8a81.06 81.06 0 0020.62-14.79 75.2 75.2 0 0012.5-17.22c.28-.49.36-1.25 1.21-1.19zM103.1 139.23a8.75 8.75 0 00-1-2.36c-1.54-3.51-3.21-7-4.61-10.54-4.36-11.07-10.85-20.93-17.36-30.77-5.74-8.69-11.82-17.14-18-25.5-.27-.37-.88-.77-.69-1.15s1-.14 1.44-.12A121 121 0 0195 73.88a68.4 68.4 0 0130.1 18.59 5.2 5.2 0 00.44.35l.21.06a.84.84 0 01.31.31 22.33 22.33 0 01.91 3.32 53.07 53.07 0 009.86 19.07c3.85 5 8 9.7 11.24 15.14a47.21 47.21 0 016.07 16.7c0 .14 0 .28.07.42.26 1.21.36 1.26 1.33.56 1.25-.9 2.43-1.89 3.74-2.7.48-.3.93-.72 1.58-.49.38.69-.23.95-.6 1.23a91.88 91.88 0 00-10.77 9.56c-.43.44-.88.93-1.62.64a2 2 0 00-1.12-.17 55.66 55.66 0 01-13-.78 54.21 54.21 0 01-23.47-10c-2-1.41-3.84-2.88-5.72-4.37a5.18 5.18 0 01-1.3-1.34 1.15 1.15 0 01-.15-.44 1.85 1.85 0 01-.01-.31zM201.07 398.76c-3.7 7.88-9 14.56-15 20.79-.63.66-1.33 1.26-1.91 2-.78.95-1.42.69-2.09-.09a17.38 17.38 0 01-2.67-4.46c-3.44-7.89-5.91-16-6.1-24.71-.21-9.64-2.79-18.73-6.11-27.7a93.43 93.43 0 01-6-25.12 1.31 1.31 0 00-.18-.38 1.3 1.3 0 01.06-1.24 97.84 97.84 0 015.67-13.5 32.22 32.22 0 0113.06-12.79 42 42 0 016.38-3c3 .85 6.18 1.28 9 2.73 5 5.94 8.56 12.6 9.78 20.37a52.81 52.81 0 01-.63 17.33c-1.31 7.47-3.21 14.83-4.24 22.35a68.74 68.74 0 00.95 25.17c.2.76.54 1.49.03 2.25zM68.31 279.72c-12.91-2.27-26-2.19-39-2.12-6.42 0-12.85.27-19.27.4-.35 0-.81.25-1-.17-.07-.15.17-.51.33-.73 7.81-10.9 16.78-20.61 28.31-27.69a75.15 75.15 0 0129.52-10.14c1.35-.19 2.79 0 4-.74a2.24 2.24 0 011.55-.05 44.59 44.59 0 0016.89-.48c4.75-.91 9.45-2.13 14.28-2.64 6.46-.69 12.83-.34 18.93 2.21.48.21 1 .33 1.48.54a1.13 1.13 0 01.68.86c.5 2.66 1.38 5.24 1.86 7.9-.81 2.05-2.35 3.59-3.72 5.24-5.45 6.58-12.43 11-20.23 14.28-5.09 2.14-10.33 3.82-15.55 5.59a99.44 99.44 0 00-17.07 7.17c-.59.36-1.19.9-1.99.57zM229.82 73.74a99.35 99.35 0 0016.41-23.35c5.59-10.84 10.66-21.91 15.36-33.16.16-.39.36-1.05.59-1.07.42 0 .57.57.79.93 5.4 8.57 9.89 17.55 12.29 27.46 2.89 12 1.52 23.56-3 34.86-2.33 5.84-4.87 11.59-7.19 17.43a50.58 50.58 0 00-3.54 14.34c.35.62-.07 1.11-.31 1.6a46.75 46.75 0 01-9.65 13.61c-1.4 1.36-3.7 4-5.37 5.11-.73-.07-1.72-1.36-2.09-1.83-2.66-3.43-4.54-3.62-8.73-4.8-.59-.16-.89-2.86-1.3-3.4a82 82 0 01-4.64-16.33 86.07 86.07 0 01-1.19-19.23c.15-3.5.54-7 .89-10.48a2.3 2.3 0 01.68-1.69z"/><path class="cls-3" d="M68.31 279.72a108.41 108.41 0 0111.83-5.5c5.77-2.05 11.56-4 17.34-6.08a65 65 0 0019.09-10.05 56.61 56.61 0 0010.06-11c.52.21.59.71.73 1.16a92.93 92.93 0 0017.79 32.23 2.29 2.29 0 01.73 1.51c-.14.75-.76 1.08-1.29 1.47a91.07 91.07 0 01-30 14.59c-.49.14-1 .39-1.52 0-9.81 2.44-19.87 3.2-29.87 4.34-9.83 1.12-19.4 3.12-28.15 8.05a67.92 67.92 0 00-17.84 15.07c-.25.29-.37 1.09-1 .66a1.11 1.11 0 01-.34-1.41c5.48-15 12.47-29 25-39.61 2.29-1.95 4.96-3.55 7.44-5.43zM201.07 398.76c-.5-3.16-1.36-6.26-1.67-9.46a78.78 78.78 0 01-.23-12.48c.63-9.65 3.29-18.94 4.89-28.41 1.31-7.68 1.59-15.33-1-22.85a43 43 0 00-7.32-13 2.74 2.74 0 01-.79-1.34 3.53 3.53 0 012.52.06 90.46 90.46 0 0018.83 1.89 85.71 85.71 0 0015.56-1.43 7.19 7.19 0 011.85-.2c1 0 1.41.66 1.72 1.48a77 77 0 014.92 20.52 51.5 51.5 0 01-2.35 20.35 2.46 2.46 0 01-.79 1.5 126.4 126.4 0 01-6.5 13.61c-3.4 6-7 11.9-10 18.11a59.41 59.41 0 00-5.58 23.34c-.18 3.74-.54 7.47-.86 11.2 0 .52.08 1.2-.74 1.35s-1.1-.35-1.45-.9a83.82 83.82 0 01-10.52-22.29 9.5 9.5 0 00-.49-1.05zM337.2 271.91c4.38 1.71 9 2.75 13.47 4a94.66 94.66 0 0117.27 6.22c9.62 4.84 16.82 12.26 22.62 21.19a134.48 134.48 0 016.65 11.76c.75 1.47-.19 2.25-.73 3.2-.33.58-.64-.1-.86-.3-1.42-1.22-2.79-2.49-4.21-3.71-11.47-9.81-24.84-13.89-39.79-13.23-5.07.23-10.15.43-15.23.64a1.39 1.39 0 01-.94.28 74 74 0 01-24.88-2.96c-9.33-2.89-17.65-7.69-25.46-13.45-1.37-1-1.39-1.31-.51-2.7.07-.13.15-.26.23-.38s.22-.36.34-.54c1.19-1.8 2.72-3.33 4-5.05a91 91 0 009.54-15.49 4.22 4.22 0 01.84-1.33c1.53-2 2.13-4.38 3.27-6.53.38-.71.65-1.49 1-2.24.59-1.37 1-1.46 2.07-.48a17.42 17.42 0 011.42 1.43 66.42 66.42 0 0027.19 18.4 7.48 7.48 0 012.7 1.27z"/><path class="cls-2" d="M337.2 271.91a41.07 41.07 0 01-7.12-2.62 68 68 0 01-21.84-15.35c-.93-1-1.83-1.95-2.69-3-.66-.79-1-.62-1.35.25-1.16 2.68-2.38 5.33-3.6 8-.21.46-.33 1-1 1.17a1.62 1.62 0 01.22-1.37 93.32 93.32 0 007.8-28.22c.09-.84-.31-1.86.66-2.48h.09a3.65 3.65 0 01.29 2.78c-.33 2.91-.6 5.82-1.15 8.7-.21 1.11.16 1.56 1.23 1.78a46.48 46.48 0 0028.81-3.06c5.6-2.5 10.61-6 15.73-9.24.93-.59 1.82-1.25 2.79-1.78.44-.25.86-.66 1.45-.35 15.34 1.55 27.57 9.24 38.48 19.56a164.56 164.56 0 0114.41 15.68c.22.27.72.53.52.92s-.7.13-1.06.12c-12.47-.29-24.94-.09-37.38.7a103 103 0 00-19.07 2.52c-1.48.38-2.93.9-4.37 1.42-3.86 1.49-7.82 2.78-11.85 3.87z"/><path class="cls-3" d="M103.38 139.68C111.75 147 120.92 152.85 132 155a52.12 52.12 0 0014.8 1c.53-.06 1.09-.12 1.22.63l-.07.11-.16.21-.08.11a2 2 0 01-.13.25 1 1 0 01-.16.24c-.06.08-.13.15-.2.23l-.1.11-.22.23-.11.12c-.07.09-.15.17-.22.25l-.12.13a3.6 3.6 0 00-.9 1.35c-2 2.75-4.21 5.36-6.14 8.17a98.63 98.63 0 00-9.7 17.94 3.45 3.45 0 01-.38.77 3 3 0 00-.72 1.36 2.5 2.5 0 01-.15.38c-1 2.05-1 2.08-3.22 1.47-9.3-2.52-18-6.25-25.63-12.3a61.74 61.74 0 01-10.16-10.34 2.12 2.12 0 01-.56-1.14c-4.71-6.48-8.74-13.42-13.29-20-8.3-12-19.89-18.54-34.17-20.61-1.42-.2-2.85-.36-4.27-.57-.19 0-.49.14-.53-.19 0-.07.29-.2.46-.25 3.55-1 7.13-1.9 10.76-2.57 8.51-1.57 17-2.08 25.57-.19a50.06 50.06 0 0119.62 9.53c3 2.3 5.9 4.76 8.86 7.13.34.27.57.8 1.16.67a1 1 0 01.32.45zM229.82 73.74c-.6 5-1.08 10.09-1.19 15.17a86.61 86.61 0 005.37 31.28c.16.45.28.91.42 1.37-1.69.54.64 5.44-1.07 5.56-4.24.29-8.87-2.13-12 .75-.49.45-4-.55-4.71-.41a25.17 25.17 0 01-2.88.05 109 109 0 00-14.44 1c-1.72.21-2.13 0-2.52-1.72a89.54 89.54 0 01-2-13.65 64 64 0 012.38-21.91 4 4 0 011-2.18c3.35-9.68 8.22-18.68 12.3-28 6.94-16 7.71-32.31 3.38-49-.08-.32-.18-.65-.24-1-.11-.67-.55-1.28-.37-2a5.91 5.91 0 011.27 1.71A112.81 112.81 0 01227 34.93a71.82 71.82 0 013.52 31.36c-.23 2.48-.46 4.97-.7 7.45zM245.75 131.9c1.24-1.27 3.94-4.06 5.2-5.3A49.94 49.94 0 00261 112.51c.2-.43.36-.89.54-1.33a55.14 55.14 0 003.69-9.34c1.49-4.41 2.82-8.87 4.62-13.17a52.53 52.53 0 0117.62-22c8.43-6.3 17.74-11 27.42-15a.33.33 0 01.22.26 126.06 126.06 0 00-11.54 12.78 49.2 49.2 0 00-10.24 34.73c.09 1.15.12 2.3.18 3.45a143.34 143.34 0 01.51 14.65 49.37 49.37 0 01-4.4 19.21 74.89 74.89 0 01-8.46 14c-.81 1.1-1.4 1.18-2.47.29a127.16 127.16 0 00-18.27-12.71c-3.46-2-7-3.73-10.66-5.37a2.25 2.25 0 00-1.37-.34c-.84-.5-2.66.23-2.64-.72z"/><path class="cls-2" d="M285.07 282.54c-.83 2-.81 1.94 1.16 3.37a82.28 82.28 0 0024.21 12.67 73.53 73.53 0 0014 2.78c4 .41 7.95.09 11.92.33a2.61 2.61 0 00.37.44c10.48 8.51 17.17 19.62 22 32a154.31 154.31 0 016 19.35c.09.36.25 1 .15 1.06-.44.21-.75-.24-1.1-.44-10.57-6.34-21.33-12.33-32.39-17.77a98.19 98.19 0 00-26-8.49c-2.26-.41-4.45-1.15-6.67-1.75-.53 0-.74-.42-.94-.78-3.09-5.46-7.28-10.08-11.25-14.86-4.49-5.4-7.86-11.32-8.82-18.41A1.34 1.34 0 00277 291c-.42-.76.22-1.15.62-1.56 1.29-1.32 2.8-2.43 4.07-3.78.68-.73 1.3-1.51 2-2.25.36-.41.69-.98 1.38-.87zM88.93 166.29c2.1 2.35 4 4.83 6.28 7.06 7.38 7.31 16.23 12 26 15.16 1.59.5 3.21.93 4.8 1.42.92.28 1.64.3 1.88-.89a.92.92 0 01.57-.77 1.39 1.39 0 010 1.37c-.9 2.66-1.73 5.33-2.46 8-.12.46-.24.94-.73 1.16-1.56.19-3-.34-4.56-.47-5.76-.52-11.47-.5-17.09 1.17A43.12 43.12 0 0091 206c-.5.35-1 .85-1.67.67-2.61-.25-5.23-.51-7.85-.74-14.39-1.26-26.33-7.61-36.51-17.63a122.86 122.86 0 01-14.74-17.85c-.18-.26-.49-.67-.41-.84.2-.39.68-.17 1-.16 10.41.12 20.82.12 31.22-.29 8.09-.32 16.19-.64 24.17-2.24.96-.17 1.84-.42 2.72-.63z"/><path class="cls-3" d="M341.33 158.81c-1.76 2.56-3.16 5.33-4.84 7.95-6.54 10.16-15.41 17.73-25.79 23.67-1.29.74-2.68 1.31-3.89 2.15s-1.55.34-2-.76a136.54 136.54 0 00-6.16-14.09 123 123 0 00-11.53-18.36c-.22-.3-.67-.54-.53-1s.7-.38 1.12-.43a57.72 57.72 0 0029.9-12.56 20.19 20.19 0 003.16-2.68 1.39 1.39 0 01.29-.35c.69 0 1-.61 1.49-1 4.76-4 9.56-8 15-11.1 8.37-4.73 17.47-7 26.94-8.08a152.49 152.49 0 0121.69-.59c.24 0 .48 0 .72.06-.11.34-.45.27-.69.32a94.51 94.51 0 00-14.77 4.18 44.21 44.21 0 00-23.05 19.27c-2.53 4.41-4.93 8.83-7.06 13.4zM357.57 227.18c-3.06 1.6-5.82 3.68-8.72 5.53-6.28 4-12.75 7.57-20.12 9.24a50.3 50.3 0 01-20.77-.07c-1-.19-1-.73-.9-1.57a78.77 78.77 0 001.36-12 19.07 19.07 0 00.48-5.37 106.52 106.52 0 00-1-20c-.17-1.1.19-1.23 1.16-.88a68 68 0 0011.34 3c4.71.81 9.44.57 14.16.49 5.62-.67 11.23-1.37 16.86-2 10.59-1.17 20.59 1 30.18 5.43a122.13 122.13 0 0118.54 11c.23.16.51.26.58.58a7.21 7.21 0 01-.83-.12 52.75 52.75 0 00-20.79-1.84 49.52 49.52 0 00-21.53 8.58zM186 308.8c-.31.5-.86.6-1.33.79a34.34 34.34 0 00-20.19 20.2c-1.19 3.08-2.31 6.19-3.47 9.28-1.13 2.9-2.28 5.8-3.66 8.6a50 50 0 01-18 19.8 99.56 99.56 0 01-24.65 11.26.21.21 0 01-.19-.21c2.19-2.15 4.46-4.21 6.55-6.46a53 53 0 0014.58-33.92c.17-2.78.31-5.56.46-8.34a12.26 12.26 0 01-.25-5.25c.26-3.53.46-7.07 1.07-10.57A43.93 43.93 0 01151 288.7a2.09 2.09 0 01.84-.52 1.5 1.5 0 011.25.57 93.29 93.29 0 0017 12.47 91.64 91.64 0 0014.47 6.69c.56.19 1.2.24 1.44.89zM161 145.3c-2.08.61-3.5 2.27-5.26 3.38a5.07 5.07 0 00-.44.37c-.67.52-1.12.87-1.3-.46-1.46-10.47-6.41-19.27-13.05-27.27a87.37 87.37 0 01-10.18-14.26 50.36 50.36 0 01-5-14 1.75 1.75 0 00-.23-.24 47.83 47.83 0 00-.67-6 109.16 109.16 0 01.91-24.82 4.67 4.67 0 01.18-.64 4.64 4.64 0 01.26.65 72 72 0 003.86 11.42A39.06 39.06 0 00146.67 92a51.28 51.28 0 006 3.12 1.05 1.05 0 011 .11c6.2 3 12.5 5.83 18.05 10a51.54 51.54 0 0113.51 15.87 63.93 63.93 0 013.63 7.5c.84 2.07.72 2.27-1.32 3.05a142.46 142.46 0 00-14.39 6.35 4.28 4.28 0 00-1 .61c-2.55 1.85-5.44 3.13-8.07 4.84a6.65 6.65 0 00-.84.43l-.31.2c-.21.12-.41.25-.61.39a1.57 1.57 0 01-.3.2 5.45 5.45 0 00-.88.56z"/><path class="cls-2" d="M237.22 355.39c.69-2.93 1.63-5.79 2.17-8.78a53.85 53.85 0 00-.49-20.4A84.53 84.53 0 00235 313c-.25-.66-.53-1.12-1.3-1.06a.84.84 0 01.73-.6c2.61-.52 5.16-1.25 7.74-1.9a1.39 1.39 0 01.7 0c1.16 1.28 1.44 3 2.08 4.5a39.27 39.27 0 0018.84 20.11c3.49 1.8 7.08 3.38 10.67 5a4.1 4.1 0 011.12.62 1.28 1.28 0 01.26.35v.21c-.26.41 0 .74.18 1.06 5.61 13.29 5.86 26.95 2.87 40.85a156.83 156.83 0 01-4.52 16.2c-.33 1-.58 1.21-1.43.37a148.53 148.53 0 01-11.13-11.86 17.13 17.13 0 01-3.17-5.75c-2-6.49-6-11.74-10.84-16.4-3.38-3.26-7.04-6.23-10.58-9.31z"/><path class="cls-3" d="M89.37 206.68a73.85 73.85 0 017.38-4.68 35.91 35.91 0 0116.25-4.28 45.41 45.41 0 0112.36 1.08 2.3 2.3 0 010 1.95c-2.06 8.63-2.25 17.41-2 26.2a69.75 69.75 0 001.14 9.43c.11.65.34 1.33-.13 2-.5.25-.94 0-1.37-.2-7.76-3.27-15.75-3.19-23.82-1.63-4.78.93-9.52 2.11-14.35 2.71a36.12 36.12 0 01-13.66-.68 42.26 42.26 0 01-12.89-5.15c-7.29-4.21-13.57-9.69-19.5-15.61a2.56 2.56 0 01-.42-.53c.25-.26.5 0 .74.07a66.59 66.59 0 0017.35 3.87A34.09 34.09 0 0079 214.67c3.56-2.52 6.94-5.29 10.37-7.99z"/><path class="cls-2" d="M172 138.35a87.84 87.84 0 0111-5.23q2.65-1.11 5.34-2.11c.7-.26.85-.61.57-1.29a63.57 63.57 0 00-10.24-17.38c-5.59-6.59-12.74-10.93-20.46-14.49-1.87-.86-3.69-1.82-5.53-2.74a65.78 65.78 0 01-1.49-8.35c-.79-8.71 1-17 3.89-25.13A125 125 0 01162.67 45c.45-.83.67-1.12 1.34-.13 3.27 4.85 6.56 9.69 9.58 14.72a43.63 43.63 0 014.18 8.81A25.81 25.81 0 00187 80.84c3.65 2.8 7.4 5.48 11.11 8.21a94.7 94.7 0 00-2.49 11 64.64 64.64 0 00-.23 16c.41 3.67 1.05 7.28 1.82 10.89.19.89.45 1.36 1.5 1.2a104.41 104.41 0 0118-1.07c-.17 1.1-1.08.9-1.77.93-2.38.1-4.77.05-7.16.26a87.23 87.23 0 00-27.34 6.76c-2.28 1-4.58 2-6.8 3.1-.48.34-1.05.74-1.64.23z"/><path class="cls-3" d="M275.59 340c-4.2-2-8.49-3.74-12.6-5.9-9.77-5.13-16.14-13.11-19.74-23.44a6.79 6.79 0 01-.2-1.11c.2-.62.8-.66 1.27-.81a93.72 93.72 0 0028.08-14.94 6.87 6.87 0 011.08-.7 8.93 8.93 0 00.83-.39l.27-.2.26-.23.13-.12a2 2 0 01.27-.23l.31-.19a3.59 3.59 0 001-.74 1 1 0 01.31-.21c.71 0 1.17.15 1.27 1 .77 6.42 3.61 11.92 7.56 16.93 3.57 4.54 7.59 8.73 10.74 13.6.81 1.24 1.57 2.51 2.36 3.76a61.62 61.62 0 015 14.65 99.74 99.74 0 011.22 25.12c-.13 2.39-.39 4.78-.61 7.17a3.32 3.32 0 01-.2.66c-.09-.22-.19-.43-.26-.66a62 62 0 00-6.76-15.67c-5.08-8.15-12.51-13.36-21.11-17.13a.7.7 0 00-.29 0z"/><path class="cls-2" d="M152 288.31c-8.3 7.41-13.49 16.49-14.94 27.63a131.28 131.28 0 00-.92 13.86c-3 1-6 2-9 2.9a355.58 355.58 0 01-36 8.85c-.23 0-.47 0-.7.06 0-.34.32-.41.54-.55a59.56 59.56 0 009.31-7.21c6.28-6 9.55-13.45 10.82-21.9.69-4.6 1.29-9.22 1.92-13.83a90.61 90.61 0 0020.27-7.9 103.28 103.28 0 0011.84-7.57 1.35 1.35 0 00.63-.76c.86.08 1.31.78 1.78 1.35a55.12 55.12 0 004.14 4.37c.18.18.48.39.31.7z"/><path class="cls-3" d="M114.72 378.73a1.77 1.77 0 01-.44.08c-.11-.23.12-.23.25-.29zM314.89 51.67c.15-.1.32-.2.45 0l-.23.26z"/><path class="cls-4" d="M321.1 142.39c.06.25-.12.3-.29.35.03-.17.04-.36.29-.35zM125.53 92.79c.24-.09.18.13.23.24zM103.38 139.68c-.19-.09-.39-.18-.31-.46.28.03.27.26.31.46z"/><path class="cls-2" d="M285.06 282.56l.31-.44a.44.44 0 01-.31.44zM146.59 158.27c-.1.75-.76 1.07-1.18 1.57a2 2 0 011.18-1.57zM129.14 186.82c-.19.51-.18 1.11-.7 1.46-.01-.61.07-1.17.7-1.46zM147.77 156.84c.29.41-.06.47-.32.58-.07-.29 0-.51.32-.58zM147.16 157.7c0 .22-.06.33-.29.3a.29.29 0 01.29-.3z"/><path class="cls-2" d="M147.45 157.41c0 .21-.08.32-.3.3.01-.19.1-.3.3-.3zM146.88 158c0 .22 0 .35-.3.3zM148 156.55c.12.32 0 .43-.31.3zM162.14 144.44a1.38 1.38 0 01-1.16.87c.07-.72.6-.81 1.16-.87z"/><path class="cls-2" d="M163 143.86a.8.8 0 01-.87.59.75.75 0 01.87-.59zM164 143.28a1.2 1.2 0 01-1 .59.85.85 0 011-.59z"/><path class="cls-4" d="M275.59 340l.3.25c-.3.13-.25-.13-.3-.25z"/><path class="cls-2" d="M275.27 292.07c.49-.53.8-1.31 1.73-1.22a2 2 0 01-1.73 1.22zM273.79 293.22c.24-.3.44-.66.92-.59a.85.85 0 01-.92.59z"/><path class="cls-2" d="M275 292.36c0-.23.11-.3.3-.3a.29.29 0 01-.3.3zM274.69 292.64c-.05-.25.09-.31.3-.3z"/><path class="cls-4" d="M239.21 145.34l.2.23h-.08l-.12-.24z"/><path class="cls-5" d="M212.2 133.77a22.38 22.38 0 00-.68 7.6c.86 10.84 8.95 18.41 19.67 18.41A19 19 0 00250 145.85a22 22 0 00.86-4.76 86.8 86.8 0 0132.5 25.13 85.36 85.36 0 0118.8 53.78 86.16 86.16 0 11-90-86.22m3.8-7.59a93.7 93.7 0 1022 2.63c9 5.89 6.75 23.47-6.82 23.47-15.54 0-16.26-22.95-2.26-25.18a93.48 93.48 0 00-12.93-.92z"/><path class="cls-5" d="M231.13 129a10.7 10.7 0 11-10.68 10.7 10.69 10.69 0 0110.68-10.7m0-7.51a18.21 18.21 0 1018.2 18.21 18.22 18.22 0 00-18.2-18.21z"/><path class="cls-5" d="M270.13 285.8h.09a4.37 4.37 0 011.4 1.24 10.06 10.06 0 012 2.77c1.75-1.39 3.65-2.59 5.42-4-1.35-1.13-2.53-2.58-4.09-3.39-.06 0-.09-.08-.14-.11l-.05-.05a1.18 1.18 0 01-.24-.26 40.11 40.11 0 01-4.21-4.84c-3.21-4.93-7.89-7.52-13.33-9.13a18.69 18.69 0 01-3.51-1.58c-1.81-1-3.52-2.17-5.39-3a52.77 52.77 0 01-10.25-6.58 47.7 47.7 0 00-5.36-3.59 34.21 34.21 0 01-6.53-5.38 2.64 2.64 0 01-.64-1.95c.43-4.66-2-7.58-5.65-9.91a23.84 23.84 0 01-3-2.23c-1.89-1.69-2.16-3.85-1.54-6.2.69-2.6 2.46-4.51 4.12-6.5a2 2 0 012.25-.86c-.2.23-.58.49-.54.67a1 1 0 00.62.67c.68.14.9.56 1.05 1.16a1.2 1.2 0 00.47.69 16.51 16.51 0 003 1.85 4.06 4.06 0 002.62.07 3.81 3.81 0 012.72 0 3.25 3.25 0 003.83-1.21 1.93 1.93 0 00.43-2.12c-.11-.26.1-.74.29-1a3.6 3.6 0 00.54-3.54 2.69 2.69 0 00-2.56-1.77 1.48 1.48 0 00-1.12.63c-.27.51.12.87.67 1 .15 0 .27.2.4.3-.2.18-.38.48-.6.51a2.86 2.86 0 01-2.77-.77 2.58 2.58 0 01-.46-3 9.07 9.07 0 011.12-1.83 4.47 4.47 0 001.13-3c-.06-.78.34-1 1-.92s1.63-.06 2.44-.06c3.93 0 6.81-2.15 9.23-4.91 1.85-2.11 2.53-4.85 2.92-7.56a25.46 25.46 0 00-.75-9.85c-.7-2.8-2.57-4.26-5.2-5a3.41 3.41 0 00-.85-.07h-2.37a18.7 18.7 0 00-2.7 0 3.81 3.81 0 01-3.24-.72 13.08 13.08 0 00-1.84-1.12c-.68-.38-1.14-.19-1.15.62 0 1.38-.69 1.83-2 1.93a19.93 19.93 0 00-3.75.92 1.79 1.79 0 00-1.24 2.69 27.47 27.47 0 011.12 2.64 2.9 2.9 0 01-.63 3.29c-.28-1.57-.47-3-.79-4.48-.54-2.38-1.14-4.75-1.76-7.12a9.2 9.2 0 01.15-5.25 19.48 19.48 0 011.32-3.64c1.86-3.28 2.56-6.9 3.34-10.51a5.39 5.39 0 01.4-1.37 1.23 1.23 0 01.08-.38 22.08 22.08 0 012.29-6.87v-.09a11.25 11.25 0 01.65-1.7c.88-1.83 1.84-3.39 4.23-3.44a30.79 30.79 0 004.24-.56 6.83 6.83 0 001.5-.35 3.53 3.53 0 001.12-.89v-.06a1.13 1.13 0 01.3-.38l.06-.07a1.47 1.47 0 01.22-.21c.1-.08.1-.4.05-.5a.79.79 0 01-.18-.14c-.93-.43-1.8.15-2.69.25a2.6 2.6 0 01-2.63-1.07 2.29 2.29 0 01.58-2.63 27.09 27.09 0 013.13-2.73 2.55 2.55 0 001.24-2.38v-.08a.83.83 0 01-.15-.11h-.17a4.32 4.32 0 00-1.26.32c-1.2.59-2.34 1.3-3.53 1.92a3.34 3.34 0 01-.92.16 2.54 2.54 0 01.06-1c.46-.9 1.06-1.72 1.52-2.61.36-.7 1-1.64.26-2.2s-1.46.41-2 1c-1 1.22-1.89 2.51-2.83 3.78l-.34-.08c0-1-.06-2-.11-3.06a10.79 10.79 0 00-.18-2.14c-.19-.73-.83-.82-1.27-.2a2.85 2.85 0 00-.4 1.2c-.18 1.18-.26 2.38-.46 3.57-.05.32-.33.78-.59.84s-.69-.25-.89-.52c-.5-.69-.91-1.46-1.36-2.19a5.58 5.58 0 01-.53-1v-.06a.11.11 0 010-.06 2.39 2.39 0 00-.39-.6.91.91 0 00-.78-.19.55.55 0 01-.22.14c0 .11-.09.26-.14.29a.59.59 0 000 .08 1.78 1.78 0 00.15.88 1.3 1.3 0 01.14.32l.1.2v.05c.69 2.44 2.29 4.57 1.47 7.29a5.22 5.22 0 000 1.85c.16 2 0 2.54-1.36 4.16a2.84 2.84 0 01-.4.55c-.17.3-.33.6-.49.9 0 .1-.07.2-.1.3a1.33 1.33 0 01-.41.62c-.88 1.68-1.69 3.39-2.7 5a11.91 11.91 0 01-.83 1.68 2.48 2.48 0 01-.18.43c-1.61 3-3.19 6-4.71 9.06a7.1 7.1 0 00-.93 2.84 42 42 0 01-1.58 8.47 34.16 34.16 0 00-.91 12.13c.23 2.1.26 4.22.41 6.33.06.74-.19 1.08-.92 1.36a35.49 35.49 0 00-4.15 1.93 6.22 6.22 0 00-2.84 3.5A20.1 20.1 0 00202 209a10.09 10.09 0 01-.78 3.61 43.78 43.78 0 01-2.16 4.54c-2.64 5.06-2.89 10.48-2.44 16a12.33 12.33 0 00.35 2.27 1.31 1.31 0 01-1.06 1.83c-1.21.29-2.45.46-3.67.69-5.74 1.06-11.48 2.06-17.24 3.14-2.68.48-5.4.82-8.07 1.39a13.11 13.11 0 00-3.85 1.42 4.71 4.71 0 00-2.28 4.51c.13 6.58.19 13.16.27 19.74 0 2.83.06 5.67.12 8.5a14.16 14.16 0 01-1.5 6.91c-.6 2.13-2.19 3.65-3.41 5.48 3.44 3.09 6.95 6.55 11.27 8.39a6.76 6.76 0 011.66-.74 8.91 8.91 0 01.8-2.22c-.44-1.37-.89-2.75-1.2-4.16a8 8 0 01-.36-.83c-1.4-3.83-.8-7.67-.31-11.53a42.38 42.38 0 012.73-10c1.56-4 2.41-8.09 1.2-12.37-.26-1 .45-.94 1-.91a81.88 81.88 0 018.74.61c3.94.66 7.85 1.32 11.85.95 2.53-.24 5-.63 7.55-1a9 9 0 014.63.65 154.62 154.62 0 0116.95 8.44c5.71 3.11 11.55 6 17.46 8.72a23.12 23.12 0 008.85 2.27 5.25 5.25 0 011.41.27c7 2.35 13.79 5.21 19.52 10.09zM235 221.89c0 1.09-.11.93-1.12.74z"/></svg>